<svg id="Calque_1" xmlns="http://www.w3.org/2000/svg" width="450" height="180"><circle fill="none" stroke="#FFF" stroke-width="2" stroke-miterlimit="10" cx="45" cy="45" r="43.5" id="Calque_1_1_"/><path fill="#FFF" stroke="#FFF" stroke-width="2" stroke-miterlimit="10" d="M41.271 76.5V48.787H33.88V38.439h7.391V26.985c.347-3.445 2.031-9.052 9.607-9.976h11.455v9.792l-7.735-.023c-1.895 0-2.518 1.41-2.611 3.164v8.684l10.348.062v10.039l-10.223-.062V76.5H41.271z" id="Calque_3"/><circle fill="none" stroke="#FFF" stroke-width="2" stroke-miterlimit="10" cx="135" cy="45" r="43.5" id="Calque_1_2_"/><path d="M131.917 49.083c-.151-.226-.174-.877 0-1.083 4.083-4.823 6.489-3.167 6.476-11.39-.006-3.437.045-5.308-3.809-7.027 0 0 8.213-2.125 5.588-2.25H126.75s-9.833 0-11.916 9.496c0 0-.077 2.826.083 3.75 1.614 9.315 11.583 7.75 11.583 7.75v3.25s1.312.868 1.5 1.333c.102.252-.083 1.083-.083 1.083s-15.612-1.537-15.583 9.25c0 0-1.178 8.963 11.583 9.75.936.06 3.75 0 3.75 0s11.802 0 13-11.082c.688-6.371-5.667-8.267-8.75-12.83zm-9.323-6.937c-1.082-1.572-1.827-3.775-1.719-7.438.063-2.125 1.674-4.107 3.594-4.844 2.688-1.031 5.923 2.269 6.938 4.188 2.031 3.844 1.462 8.5-.719 10.094-1.683 1.229-4.543 3.157-8.094-2zm8.414 26.972c-2.192.715-4.998.823-9.2-.556-2.439-.799-4.183-3.345-4.378-5.82-.273-3.467 4.655-6.084 7.225-6.604 5.146-1.037 10.342 1.217 11.441 4.287.847 2.373 2.097 6.346-5.088 8.693zm13.075-32.952h8.584v-8.833h3v8.833h8.916v2.917h-9l-.02 8.625h-2.875v-8.719l-8.605.094z" id="Calque_3_1_" fill="#FFF" stroke="#FFF" stroke-width="2" stroke-miterlimit="10"/><circle fill="none" stroke="#FFF" stroke-width="2" stroke-miterlimit="10" cx="225" cy="45" r="43.5" id="Calque_1_3_"/><g id="Calque_3_2_" fill="#FFF" stroke="#FFF" stroke-width="2" stroke-miterlimit="10"><path d="M204.603 35.292h9.555V66.13h-9.555zm15.723 0h9.033v4.257c3.187-5.791 20.937-10.888 20.937 9.469v17.113h-9.644l.046-17.027c.016-9.669-11.162-7.644-10.816-.025v17.055h-9.554v-30.84l-.002-.002z"/><ellipse cx="209.38" cy="25.427" rx="5.428" ry="5.686"/></g><circle fill="none" stroke="#FFF" stroke-width="2" stroke-miterlimit="10" cx="315" cy="45" r="43.5" id="Calque_1_4_"/><path fill="#FFF" stroke="#FFF" stroke-width="2" stroke-miterlimit="10" d="M344.037 30.7l-5.385 1.238s3.445-4.156 3.959-5.076c.682-1.223-6.621 2.724-6.621 2.724.434-2.661-19.127-10.732-19.127 8.542 0 0-1.342.223-1.98.186-11.82-.681-19.064-10.647-19.064-10.647-5.198 9.903 4.705 15.103 4.705 15.103l-6.313-2.353c-1.547 5.817 7.552 10.769 7.552 10.769l-4.859.402c1.363 5.199 10.06 7.396 10.06 7.396s.619 2.723-15.351 4.457c0 0 35.714 18.135 46.668-20.423.445-1.565.188-6.502.188-6.502 1.297-1.175 7.441-6.554 5.568-5.816z" id="Calque_3_3_"/><g id="Calque_1_5_"><circle fill="none" stroke="#FFF" stroke-width="2" stroke-miterlimit="10" cx="404.785" cy="45" r="43.5" id="Calque_1_6_"/></g><path fill="none" stroke="#FFF" stroke-width="5" stroke-miterlimit="10" d="M406.494 34.785a16.74 16.74 0 0 0-5.814-1.046c-9.503 0-16.814 7.704-16.814 17.207 0 9.504 7.312 17.207 16.814 17.207 9.504 0 16.814-7.703 16.814-17.207 0-2.401-.471-4.688-1.32-6.764" id="Calque_4"/><g id="Calque_3_4_" fill="#FFF"><path d="M393.035 68s9.297-3.443 12.25-8.711c4.875-8.695 5.625-22.352 4.938-26.539-.178-1.081.328 1.041 0 0-2.629-8.341-7.52-15.667-7.52-15.667 1.254.1 6.49 5.542 7.52 15.667 0 0 3.363 8.044 2 15.459-1.334 7.25-7.02 18.833-19.188 19.791z"/><path d="M411.973 35.656s-3.602-5.619 1.721-9.813c2.357-1.859 6.547-1.828 9.063-4.547 1.979-2.137 2.063-3.172 2.063-3.172 6.188 9.469 1.055 21.28-5.563 21.625-3.594.188-6.063-2.656-6.063-2.656s9.25-4.5 11-10.531c-4.378 7.704-12.221 9.094-12.221 9.094z"/></g><g id="Calque_1_7_"><circle fill="none" stroke="#364A5E" stroke-width="2" stroke-miterlimit="10" cx="404.784" cy="135" r="43.5" id="Calque_1_8_"/></g><path fill="none" stroke="#364A5E" stroke-width="5" stroke-miterlimit="10" d="M406.491 124.785a16.735 16.735 0 0 0-5.813-1.047c-9.503 0-16.813 7.705-16.813 17.207 0 9.504 7.311 17.207 16.813 17.207 9.505 0 16.815-7.703 16.815-17.207 0-2.401-.471-4.688-1.32-6.764" id="Calque_4_1_"/><g id="Calque_3_5_" fill="#364A5E"><path d="M393.034 158s9.297-3.443 12.25-8.711c4.875-8.695 5.625-22.352 4.938-26.539-.178-1.081.328 1.041 0 0-2.629-8.341-7.521-15.667-7.521-15.667 1.254.101 6.49 5.542 7.521 15.667 0 0 3.363 8.044 2 15.459-1.334 7.25-7.022 18.833-19.188 19.791z"/><path d="M411.972 125.656s-3.604-5.619 1.719-9.813c2.359-1.858 6.547-1.827 9.064-4.547 1.977-2.137 2.063-3.172 2.063-3.172 6.188 9.469 1.053 21.28-5.563 21.625-3.596.188-6.064-2.656-6.064-2.656s9.25-4.5 11-10.53c-4.376 7.703-12.219 9.093-12.219 9.093z"/></g><circle fill="none" stroke="#364A5E" stroke-width="2" stroke-miterlimit="10" cx="45" cy="135" r="43.5" id="Calque_1_9_"/><path fill="#37495E" stroke="#364A5E" stroke-width="2" stroke-miterlimit="10" d="M41.271 166.5v-27.713H33.88v-10.348h7.392v-11.455c.347-3.444 2.03-9.051 9.606-9.976h11.455v9.792l-7.735-.023c-1.895 0-2.518 1.41-2.611 3.164v8.685l10.348.062v10.039l-10.223-.062V166.5H41.271z" id="Calque_3_6_"/><circle fill="none" stroke="#364A5E" stroke-width="2" stroke-miterlimit="10" cx="135" cy="135" r="43.5" id="Calque_1_10_"/><path d="M131.917 139.083c-.151-.226-.174-.877 0-1.083 4.083-4.822 6.489-3.167 6.476-11.391-.006-3.437.045-5.307-3.809-7.026 0 0 8.213-2.125 5.588-2.25H126.75s-9.833 0-11.916 9.496c0 0-.077 2.825.083 3.75 1.614 9.315 11.583 7.75 11.583 7.75v3.25s1.312.868 1.5 1.333c.102.252-.083 1.083-.083 1.083s-15.612-1.537-15.583 9.25c0 0-1.178 8.963 11.583 9.75.936.06 3.75 0 3.75 0s11.802 0 13-11.082c.688-6.371-5.667-8.267-8.75-12.83zm-9.323-6.937c-1.082-1.572-1.827-3.775-1.719-7.438.063-2.125 1.674-4.106 3.594-4.845 2.688-1.03 5.923 2.27 6.938 4.189 2.031 3.844 1.462 8.5-.719 10.094-1.683 1.229-4.543 3.157-8.094-2zm8.414 26.972c-2.192.715-4.998.823-9.2-.556-2.439-.799-4.183-3.345-4.378-5.82-.273-3.467 4.655-6.084 7.225-6.604 5.146-1.037 10.342 1.217 11.441 4.287.847 2.373 2.097 6.346-5.088 8.693zm13.075-32.952h8.584v-8.833h3v8.833h8.916v2.917h-9l-.02 8.625h-2.875v-8.72l-8.605.095z" id="Calque_3_7_" fill="#364A5E" stroke="#364A5E" stroke-width="2" stroke-miterlimit="10"/><circle fill="none" stroke="#364A5E" stroke-width="2" stroke-miterlimit="10" cx="225" cy="135" r="43.5" id="Calque_1_11_"/><g id="Calque_3_8_" fill="#364A5E" stroke="#364A5E" stroke-width="2" stroke-miterlimit="10"><path d="M204.603 125.292h9.555v30.838h-9.555zm15.723 0h9.033v4.257c3.187-5.791 20.937-10.888 20.937 9.469v17.113h-9.644l.046-17.027c.016-9.67-11.162-7.644-10.816-.025v17.055h-9.554v-30.84l-.002-.002z"/><ellipse cx="209.38" cy="115.427" rx="5.428" ry="5.686"/></g><circle fill="none" stroke="#364A5E" stroke-width="2" stroke-miterlimit="10" cx="315" cy="135" r="43.5" id="Calque_1_12_"/><path fill="#364A5E" stroke="#364A5E" stroke-width="2" stroke-miterlimit="10" d="M344.037 120.7l-5.385 1.236s3.445-4.154 3.959-5.076c.682-1.223-6.621 2.725-6.621 2.725.434-2.66-19.127-10.732-19.127 8.543 0 0-1.342.223-1.98.186-11.82-.682-19.064-10.646-19.064-10.646-5.198 9.902 4.705 15.102 4.705 15.102l-6.313-2.352c-1.547 5.816 7.552 10.768 7.552 10.768l-4.859.402c1.363 5.199 10.06 7.396 10.06 7.396s.619 2.723-15.351 4.457c0 0 35.714 18.135 46.668-20.424.445-1.564.188-6.502.188-6.502 1.297-1.174 7.441-6.553 5.568-5.815z" id="Calque_3_9_"/></svg>