<svg id="xc_polygon" xmlns="http://www.w3.org/2000/svg" width="1663" height="636"><g id="Xavier" fill="none" stroke="#e46163" stroke-width="4"><g id="X"><path d="M351.826 48.072h53.59l55.12 60.217 44.913-60.217h44.913l14.291 17.625-77.577 88.255 77.577 105.094h-66.349l-44.402-68.382-44.403 68.382h-57.652v-23.14l76.546-89.579z"/><path stroke-linejoin="round" d="M405.416 47.6l11.265 83.435 11.701 15.055 32.154-38.274L351.826 47.6"/><path stroke-linejoin="round" d="M505.449 47.6l-51.547 142.887 33.174-36.741 77.577-88.286-136.271 80.63-18.883 112.78"/><path stroke-linejoin="round" d="M351.826 235.906l102.076-45.419-25.52-44.397"/><path stroke-linejoin="round" d="M498.304 258.87l43.071-31.544-87.473-36.839 33.174-36.741z"/></g><g id="a"><path d="M593.517 110.716l15.395 25.976s61.94-39.414 66.195 22.768l-65.169 7.184-26.684 41.046 9.75 38.994 38.999 18.984 50.288-11.288 15.907 6.671 29.763-4.617-7.184-27.707.512-92.034c.001-.001-14.88-82.928-127.772-25.977z"/><path stroke-linejoin="round" d="M608.815 136.491l53.415-45.85 58.786 44.649-45.909 23.768h45.74"/><path stroke-linejoin="round" d="M662.279 90.741l6.263 37.318 52.499 7.481-.093 62.662-62.518-31.559-34.893 31.665 8.817 32.741h50.707l37.887-32.741"/><path stroke-linejoin="round" d="M688.633 181.889l-5.572 48.947 37.717-2.11m-48.489 2.11l-40.286 34.831-38.999-18.984 30.533-48.481-13.599-31.559"/><path stroke-linejoin="round" d="M683.061 230.836l-.769 23.543-99.038-46.69 75.176-41.046 30.203 15.246 9.102-80.992-48.044 21.017-56.174-11.198m75.025 17.343l29.657 132.991"/></g><g id="v"><path d="M747.46 93.067s37.717 151.98 53.111 167.979h47.721s7.955 2 54.65-167.979h-37.717L825.202 208.51 784.92 93.067h-37.46z"/><path stroke-linejoin="round" d="M800.572 261.05l24.63-52.591 23.091 52.591M784.92 93.016l-23.154 54.729 63.436 60.714 65.446-71.568-25.421-43.875 8.316 101.539-90.558 25.241z"/></g><g id="i"><path d="M929.848 261.045V96.066h33.648l13.352 21.577v90.816l-13.61 52.586zm-.221-193.975l-2.564-39.358 20.146-12.495 29.639 8.283v26.424l-5.401 17.146z"/><path stroke-linejoin="round" d="M929.848 96.351l46.843 21.292-47.009 20.009 33.556 123.393h-33.611l47.221-143.402v90.816l-47 52.591zm-.221-28.982l26.693-13.464L976.58 23.5l-49.517 4.362 44.384 39.507"/></g><g id="e"><path d="M1116.924 261.05l-83.211-17.188-20.865-61.185V135.73l52.039-44.989 68.162 10.156 30.039 40.99-9.996 35.147-100.828 6.413 35.793 43.868 65.814-11.159 7.697 18.599z"/><path stroke-linejoin="round" d="M1075.117 252.406l12.944-25.091 73.507 7.44-7.697-18.599-9.232 1.564-27.715 43.33-28.863-33.735-54.266 16.547 31.174-153.121 66.646 59.704 1.475-49.548 30.017 40.99-150.095 40.79 77.828-67.876-77.828 20.929 39.258 47.717 74.619-4.746-113.877-42.971"/><path stroke-linejoin="round" d="M1133.09 100.897l-42.25 13.904 72.267 27.086-31.492 8.558-.451 27.983m-43.103 48.887l-75.049-44.638"/></g><g id="r"><path d="M1206.211 254.379l-9.236-153.482 27.197-4.546 26.17 12.989 19.5-18.273h40.027l-7.185 41.876-49.262 1.97-7.697 15.865-5.911 110.293z"/><path stroke-linejoin="round" d="M1206.211 254.379l39.514-103.642-48.75-49.84 27.197-4.546 15.642 164.699-39.498-104.644 50.026-47.229 52.342 23.603-32.842-42.039-16.42 44.091-53.106 21.574"/></g></g><g id="Chevalier" fill="none" stroke="#e46163" stroke-width="4"><g id="C"><path d="M284.966 435.482l31.815-30.785-22.578-22.572-31.302-7.697-70.814 12.312-52.853 59.006-4.106 75.422 11.289 36.301 36.946 42.713 67.222 17.445 53.368-19.498 12.828-24.625-15.394-16.035-32.328 11.416-54.393-5.133-27.197-44.637 1.026-59.004 45.537-52.529z"/><path stroke-linejoin="round" d="M303.953 598.129l-2.566-40.66-50.802 60.158-111.351-171.881 154.969-63.621-9.237 53.357-22.065-61.054-29.763 33.863-41.051-21.551-8.724 213.442-44.129-154.436"/><path stroke-linejoin="round" d="M262.901 374.428l-127.773 146.74 115.457 96.459m-67.222-17.445l118.024-42.713"/></g><g id="h"><path d="M352.878 613.521l-3.031-74.138V371.031h19.531l24.247 22.799 6.158 84.707 30.018-28.84 50.416-3.836 23.092 50.401-7.312 117.74h-39.64l3.463-90.541-16.934-36.291-41.179 16.1-2.285 105.41z"/><path stroke-linejoin="round" d="M349.75 371.219l50.033 107.365-50.033 60.799 49.648 69.265-47.38-14.669 49.689-90.77-28.505 7.678-23.452-40.77 43.875-76.193z"/><path stroke-linejoin="round" d="M393.673 393.924l-43.826 30.4v45.793l153.51 25.91-43.513 27.434 36.153 90.541h-39.64l46.952-117.734-7.312 117.375-15.78-167.709-37.885 41.363-12.531-37.561-28.094 53.481-1.9-24.629"/></g><g id="e_1_"><path d="M641.221 613.521l-83.361-17.187-21.013-61.186v-46.945l52.187-44.99 68.235 10.156 30.077 40.99-9.977 35.145-100.819 6.414 35.8 43.869 65.814-11.16 7.699 18.602z"/><path stroke-linejoin="round" d="M599.415 604.879l12.942-25.092 73.508 7.442-7.698-18.602-9.232 1.564-27.714 43.33-28.864-33.734-54.266 16.547 31.174-153.121 66.647 59.705 1.472-49.549 30.02 40.99-150.095 40.789 77.827-67.875-77.827 20.93 39.256 47.715 74.62-4.748-113.876-42.967"/><path stroke-linejoin="round" d="M657.384 453.369l-42.248 13.904 72.268 27.086-31.492 8.559-.453 27.982m-43.102 48.887l-75.048-44.639"/></g><g id="v_1_"><path d="M706.324 446.023s37.716 152.98 53.109 167.979h47.724s7.954 2 54.652-167.979H824.09l-40.025 115.441-40.283-115.441h-37.458z"/><path stroke-linejoin="round" d="M743.782 446.447l-23.153 54.729 63.436 60.713 65.445-71.567-25.42-43.875 8.316 101.537-90.559 25.245z"/><path stroke-linejoin="round" d="M759.433 614.48l24.632-52.591 23.092 52.591"/></g><g id="a_1_"><path d="M883.4 465.832l15.395 25.977s61.939-39.416 66.193 22.768l-65.168 7.184-26.684 41.045 9.75 38.994 38.998 18.984 50.289-11.291 15.908 6.674 29.762-4.619-7.184-27.705.512-92.033c.001-.001-14.88-82.929-127.771-25.978z"/><path stroke-linejoin="round" d="M898.758 492.027l53.385-46.06 58.769 44.965-45.924 24.082h45.86"/><path stroke-linejoin="round" d="M952.162 445.857l6.262 37.319 52.498 7.482-.092 62.66-62.517-31.558-34.895 31.586 8.818 32.66h50.707l37.887-32.66"/><path stroke-linejoin="round" d="M978.516 537.006l-5.573 48.945 37.717-2.109m-48.488 2.109l-40.287 34.832-38.998-18.984 30.531-48.481-13.598-31.558"/><path stroke-linejoin="round" d="M972.943 585.951l-.769 23.541-99.037-46.687 75.176-41.045 30.203 15.246 9.099-80.992-48.043 21.017-56.172-11.199m75.024 17.344l29.658 132.99"/></g><g id="l"><path d="M1064.912 612.814l-11.064-50.925V373.031h34.062l11.938 24.17v190.985l8.701 21.31z"/><path stroke-linejoin="round" d="M1064.818 612.814l34.639-24.628-45.799-26.297 27.324-45.985zm16.164-96.91l18.475 72.282"/><path stroke-linejoin="round" d="M1053.658 372.758l45.799 24.443-45.799 15.963 27.324 102.74 18.475-118.703"/></g><g id="i_1_"><path d="M1143.848 613.002V448.023h33.656l13.344 21.385v90.815l-13.598 52.779zm-.211-193.977l-2.563-39.453 20.141-12.543 29.633 8.237v26.422l-5.387 17.337z"/><path stroke-linejoin="round" d="M1143.848 448.117l46.847 21.291-47.006 20.104 33.561 123.49h-33.613l47.211-143.594v90.815l-47 52.59zm-.211-28.982l26.695-13.467 20.258-30.402-49.516 4.361 44.387 39.508"/></g><g id="e_2_"><path d="M1332.73 615.619l-83.115-17.187-20.767-61.186v-46.947l51.939-44.988 68.115 10.156 30.014 40.988-10.008 35.147-100.834 6.414 35.791 43.869 65.811-11.16 7.697 18.599z"/><path stroke-linejoin="round" d="M1290.924 606.977l12.941-25.092 73.508 7.439-7.697-18.599-9.231 1.564-27.715 43.33-28.865-33.734-54.265 16.547 31.173-153.121 66.647 59.705 1.475-49.549 30.017 40.988-150.094 40.791 77.828-67.877-77.828 20.93 39.254 47.717 74.621-4.748-113.875-42.969"/><path stroke-linejoin="round" d="M1348.895 455.467l-42.249 13.902 72.266 27.086-31.492 8.561-.451 27.982m-43.104 48.887l-75.047-44.639"/></g><g id="r_1_"><path d="M1422.91 609.654l-9.236-153.48 27.195-4.545 26.17 12.828 19.502-18.434h40.025l-7.187 42.038-49.262 2.048-7.697 15.907-5.906 110.31z"/><path stroke-linejoin="round" d="M1422.91 609.654l39.51-103.638-48.746-49.842 27.195-4.545 15.645 164.697-39.5-104.64 50.025-47.231 52.34 23.604-32.838-42.039-16.424 44.089-53.103 21.577"/></g></g></svg>