<svg version="1.1" class="calque" xmlns="http://www.w3.org/2000/svg" xmlns:xlink="http://www.w3.org/1999/xlink" x="0px" y="0px"
	 width="827px" height="1052px" viewBox="0 0 827 1052" enable-background="new 0 0 827 1052" xml:space="preserve">
	 <defs>
       <pattern id="f_island" patternUnits="userSpaceOnUse" width="827" height="1052">
         <image xlink:href="img/first_island2_min.jpg" x="0" y="0" width="827" height="1052" />
       </pattern>
     </defs>
    <path fill-rule="evenodd" clip-rule="evenodd" fill="url(#f_island)" stroke="#7A6752" stroke-width="3" stroke-miterlimit="10" d="
        M826.642,308.73c-4.155-9.626-6.695-20.087-12.446-28.857c-14.544-22.177-27.229-45.439-40.841-68.157
        c-5.393-8.999-9.735-18.888-16.413-26.806c-20.223-23.974-43.5-45.027-66.346-66.458c-2.102-1.972-3.794-2.022-6.101-0.4
        c-4.769,3.353-9.811,6.323-14.518,9.756c-3.15,2.298-4.697,1.663-6.431-1.692c-6.802-13.173-13.892-26.198-20.77-39.333
        c-1.392-2.659-3.334-4.357-6.024-5.63c-13.267-6.271-26.82-11.81-40.628-16.786c-3.909-1.409-6.805-1.218-9.954,1.63
        c-9.994,9.04-21.003,16.345-34.64,18.687c-3.097,0.532-4.896,2.584-6.396,5.108c-2.978,5.014-5.985,10.01-9.019,14.991
        c-2.767,4.545-3.12,4.555-6.296,0.056c-1.921-2.722-3.644-5.585-5.61-8.272c-22.9-31.294-40.01-66.604-66.269-95.568
        c-0.667,0-1.333,0-1.999,0c-4.977,2.801-10.538,4.106-15.864,5.95c-4.07,1.409-6.805,3.684-8.93,7.357
        c-4.218,7.289-8.58,9.099-16.593,6.765c-7.599-2.214-16.244-1.464-22.927-4.611c-7.16-3.372-9.385,1.084-13.348,3.79
        c-0.412,0.281-0.804,0.829-1.216,0.839c-7.169,0.186-8.863,5.755-10.931,10.991c-0.71,1.797-2.27,2.853-3.761,3.907
        c-5.091,3.599-9.181,8.188-12.975,13.064c-0.808,1.04-2.302,2.538-2.024,3.28c3.389,9.063-4.441,16.816-2.825,25.707
        c0.471,2.592,0.434,5.12,1.869,7.551c6.438,10.916,12.515,22.006,15.353,34.549c0.391,1.728,1.635,3.249,2.355,4.92
        c1.017,2.359,1.447,4.519-0.446,6.95c-5.142,6.603-6.577,6.631-10.344-0.777c-18.054-35.506-38.644-69.592-58.25-104.229
        c-1.982-3.502-4.161-4.911-8.36-4.207c-10.175,1.707-20.428,2.967-30.667,4.273c-3.192,0.407-4.804,2.268-6.376,4.866
        c-12.584,20.805-20.569,43.616-29.351,66.107c-5.261,13.476-9.431,27.415-16.395,40.202c-1.864,3.422-3.821,6.21-7.851,2.256
        c-1.465-1.438-3.435-1.066-5.247-0.84c-29.226,3.658-58.488,7.054-87.372,13.042c-3.792,0.786-4.564,3.679-5.434,6.403
        c-1.358,4.254-3.354,4.558-6.881,2.271c-4.606-2.987-9.466-5.583-14.211-8.355c-5.627-3.288-5.6-3.283-7.75,2.601
        c-5.43,14.862-10.979,29.682-16.268,44.595c-1.513,4.267-4.019,7.559-7.369,10.433c-4.675,4.009-9.224,8.167-13.887,12.19
        c-6.365,5.491-11.462,11.767-15.077,19.546C11.9,252.481,6.241,262.127,1,271.966c0,0.333,0,0.667,0,1
        c0.485,1.054,1.096,2.068,1.436,3.167c7.188,23.237,14.416,46.463,21.436,69.751c1.086,3.604,2.806,6.082,6.109,7.954
        c9.13,5.175,18.095,10.64,27.124,15.992c18.633,11.044,37.251,22.11,55.915,33.101c1.852,1.089,3.576,3.004,6.222,0.827
        c8.027-6.603,9.919-12.952,6.528-22.93c-0.612-1.799-1.857-3.681,0.049-5.754c10.08,8.374,14.281,20.173,18.884,31.705
        c0.393,0.984,0.034,2.307-0.101,3.458c-1.414,12.083-3.06,24.141-6.452,35.853c-2.044,7.058-1.448,14.004-0.822,21.192
        c0.997,11.456,4.523,22.464,4.8,34.069c0.437,18.326-4.48,35.982-5.723,54.062c-0.81,11.787-2.451,23.866,0.626,35.302
        c6.517,24.223,10.726,48.746,12.695,73.695c0.443,5.627,2.492,11.168,1.595,16.83c-2.342,14.802-4.681,29.601-7.879,44.264
        c-2.667,12.227-1.56,24.479,1.718,36.503c4.13,15.146,11.165,29.244,16.12,44.109c1.861,5.582,2.393,10.752,1.035,16.521
        c-5.273,22.4-6.794,45.106-3.465,67.913c2.848,19.512,2.594,38.639-2.211,57.938c-2.131,8.559-2.021,17.912,0.035,26.776
        c2.148,9.262,5.852,18.029,9.294,26.889c3.758,9.674,5.837,19.781,4.672,30.303c-0.55,4.962-0.985,9.938-1.617,14.891
        c-0.507,3.968,0.725,5.776,5.08,5.763c36.994-0.111,73.988-0.108,110.981-0.014c4.04,0.011,5.15-1.641,5.051-5.399
        c-0.216-8.207-1.379-16.249-3.374-24.19c-1.264-5.035-1.769-9.977-0.985-15.281c2.599-17.606,5.836-35.166,5.469-53.095
        c-0.154-7.515,0.79-14.915,2.413-22.291c1.389-6.317,3.479-12.483,3.74-19.078c0.792-19.987-2.571-39.132-10.924-57.35
        c-1.441-3.145-1.707-6.387-1.09-9.765c2.511-13.762,5.379-27.473,7.381-41.308c2.023-13.982,3.82-28.12,0.363-42.163
        c-4.564-18.544-3.668-37.002,0.465-55.426c3.645-16.25,5.016-32.674,2.388-49.112c-3.104-19.424-2.839-39.213-6.855-58.515
        c-1.22-5.863-2.278-11.774-2.025-17.831c0.499-11.896-1.015-23.552-3.664-35.163c-3.038-13.321-5.519-26.917-5.012-40.538
        c0.548-14.766,3.064-29.453,4.491-44.197c0.341-3.52,1.597-3.743,4.453-2.629c7.915,3.085,15.884,6.034,23.859,8.963
        c2.938,1.079,5.108,2.928,6.905,5.478c4.796,6.807,9.203,13.987,14.719,20.167c14.971,16.773,30.503,33.045,45.645,49.669
        c2.73,2.997,4.899,3.334,8.563,1.561c26.842-12.987,54.01-25.323,80.617-38.77c9.766-4.936,19.274-6.543,29.771-5.008
        c6.305,0.922,12.029-0.155,17.289-4.408c5.162-4.175,11.092-7.385,16.489-11.289c12.275-8.879,25.812-16.006,37.141-26.16
        c4.771-4.276,9.78-7.939,15.46-10.842c3.62-1.851,7.846-2.996,9.598-7.437c0.524-1.33,2.169-1.35,3.521-1.458
        c4.48-0.358,8.958-0.755,13.439-1.11c12.933-1.025,25.718-2.035,37.726-8.139c9.156-4.653,18.533-9.276,28.627-11.673
        c15.067-3.578,30.241-6.704,45.38-9.975c1.812-0.391,3.58-0.791,5.125-1.853c22.177-15.236,46.228-27.158,70.035-39.497
        c3.037-1.574,3.179-3.11,1.618-5.838c-2.813-4.912-5.337-9.989-7.969-15.004c-0.758-1.447-2.014-2.867-1.096-4.631
        c3.749-7.207,6.975-14.829,14.741-18.926c6.483-3.419,12.942-6.885,19.406-10.341C825.771,312.283,827.771,311.345,826.642,308.73z" />
</svg>
