<svg id="logo_animate" xmlns="http://www.w3.org/2000/svg" width="40" height="40"><path fill="#C7B0B6" stroke="#C7B0B6" stroke-miterlimit="10" d="M31 10L9 20l22 10z" id="trgl_2"/><path fill="#C7B0B6" stroke="#C7B0B6" stroke-miterlimit="10" d="M9 10l22 10L9 30z" id="trgl_1"/><path fill="#EFEFEF" d="M31.389 20c0 6.616-5.007 12-11.173 12-6.168 0-11.172-5.384-11.172-12 0-6.629 5.004-12 11.172-12 6.166 0 11.173 5.371 11.173 12z" id="round"/><g id="lttr_x"><g id="X" fill="none" stroke="#E46264" stroke-width=".5" stroke-miterlimit="10"><path d="M14.082 13.485h3.087l3.178 3.726 2.589-3.726h2.587l.825 1.09-4.473 5.462 4.473 6.504h-3.825l-2.559-4.226-2.558 4.226h-3.322v-1.43l4.411-5.544z"/><path stroke-linejoin="round" d="M17.169 13.458l.65 5.161.675.934 1.853-2.368-6.265-3.727"/><path stroke-linejoin="round" d="M22.936 13.458l-2.972 8.841 1.911-2.274 4.473-5.463-7.854 4.991-1.088 6.984"/><path stroke-linejoin="round" d="M14.082 25.111l5.882-2.812-1.47-2.746m4.029 6.984l2.482-1.95-5.041-2.288 1.911-2.274z"/></g></g><g id="lttr_c"><g id="C" fill="none" stroke="#E46264" stroke-width=".5"><path d="M23.061 16.764l1.752-1.646-1.243-1.206-1.724-.412-3.897.658-2.909 3.155-.227 4.031.622 1.94 2.034 2.283 3.699.933 2.937-1.042.708-1.316-.846-.858-1.781.611-2.994-.275-1.497-2.386.056-3.154 2.507-2.808z"/><path stroke-linejoin="round" d="M24.105 25.458l-.138-2.174-2.799 3.216-6.128-9.187 8.53-3.401-.509 2.852-1.215-3.264-1.638 1.81-2.259-1.152-.48 11.409-2.429-8.254"/><path stroke-linejoin="round" d="M21.846 13.5l-7.033 7.844 6.355 5.156m-3.699-.933l6.498-2.283"/></g></g></svg>