<?xml version="1.0" encoding="utf-8"?>
<!-- Generator: Adobe Illustrator 16.0.0, SVG Export Plug-In . SVG Version: 6.00 Build 0)  -->
<!DOCTYPE svg PUBLIC "-//W3C//DTD SVG 1.1//EN" "http://www.w3.org/Graphics/SVG/1.1/DTD/svg11.dtd">
<svg version="1.1" id="Calque_1" xmlns="http://www.w3.org/2000/svg" xmlns:xlink="http://www.w3.org/1999/xlink" x="0px" y="0px"
	 width="450px" height="180px" viewBox="0 0 450 180" enable-background="new 0 0 450 180" xml:space="preserve">
<g id="Calque_1_1_">
	<circle fill="none" stroke="#FFFFFF" stroke-width="2" stroke-miterlimit="10" cx="45" cy="45" r="43.5"/>
</g>
<g id="Calque_3">
	<path fill="#FFFFFF" stroke="#FFFFFF" stroke-width="2" stroke-miterlimit="10" d="M41.271,76.5V48.787H33.88V38.439h7.391V26.985
		c0.347-3.445,2.031-9.052,9.607-9.976h11.455v9.792l-7.735-0.023c-1.895,0-2.518,1.41-2.611,3.164v8.684l10.348,0.062v10.039
		l-10.223-0.062V76.5H41.271z"/>
</g>
<g id="Calque_1_2_">
	<circle fill="none" stroke="#FFFFFF" stroke-width="2" stroke-miterlimit="10" cx="135" cy="45" r="43.5"/>
</g>
<g id="Calque_3_1_">
	<path fill="#FFFFFF" stroke="#FFFFFF" stroke-width="2" stroke-miterlimit="10" d="M131.917,49.083
		c-0.151-0.226-0.174-0.877,0-1.083c4.083-4.823,6.489-3.167,6.476-11.39c-0.006-3.437,0.045-5.308-3.809-7.027
		c0,0,8.213-2.125,5.588-2.25H126.75c0,0-9.833,0-11.916,9.496c0,0-0.077,2.826,0.083,3.75c1.614,9.315,11.583,7.75,11.583,7.75
		v3.25c0,0,1.312,0.868,1.5,1.333c0.102,0.252-0.083,1.083-0.083,1.083s-15.612-1.537-15.583,9.25c0,0-1.178,8.963,11.583,9.75
		c0.936,0.06,3.75,0,3.75,0s11.802,0,13-11.082C141.355,55.542,135,53.646,131.917,49.083z M122.594,42.146
		c-1.082-1.572-1.827-3.775-1.719-7.438c0.063-2.125,1.674-4.107,3.594-4.844c2.688-1.031,5.923,2.269,6.938,4.188
		c2.031,3.844,1.462,8.5-0.719,10.094C129.005,45.375,126.145,47.303,122.594,42.146z M131.008,69.118
		c-2.192,0.715-4.998,0.823-9.2-0.556c-2.439-0.799-4.183-3.345-4.378-5.82c-0.273-3.467,4.655-6.084,7.225-6.604
		c5.146-1.037,10.342,1.217,11.441,4.287C136.943,62.798,138.193,66.771,131.008,69.118z"/>
	<polygon fill="#FFFFFF" stroke="#FFFFFF" stroke-width="2" stroke-miterlimit="10" points="144.083,36.166 152.667,36.166 
		152.667,27.333 155.667,27.333 155.667,36.166 164.583,36.166 164.583,39.083 155.583,39.083 155.563,47.708 152.688,47.708 
		152.688,38.989 144.083,39.083 	"/>
</g>
<g id="Calque_1_3_">
	<circle fill="none" stroke="#FFFFFF" stroke-width="2" stroke-miterlimit="10" cx="225" cy="45" r="43.5"/>
</g>
<g id="Calque_3_2_">
	
		<rect x="204.603" y="35.292" fill="#FFFFFF" stroke="#FFFFFF" stroke-width="2" stroke-miterlimit="10" width="9.555" height="30.838"/>
	<path fill="#FFFFFF" stroke="#FFFFFF" stroke-width="2" stroke-miterlimit="10" d="M220.326,35.292h9.033v4.257
		c3.187-5.791,20.937-10.888,20.937,9.469v17.113h-9.644l0.046-17.027c0.016-9.669-11.162-7.644-10.816-0.025v17.055h-9.554v-30.84
		L220.326,35.292L220.326,35.292z"/>
	
		<ellipse fill="#FFFFFF" stroke="#FFFFFF" stroke-width="2" stroke-miterlimit="10" cx="209.38" cy="25.427" rx="5.428" ry="5.686"/>
</g>
<g id="Calque_1_4_">
	<circle fill="none" stroke="#FFFFFF" stroke-width="2" stroke-miterlimit="10" cx="315" cy="45" r="43.5"/>
</g>
<g id="Calque_3_3_">
	<path fill="#FFFFFF" stroke="#FFFFFF" stroke-width="2" stroke-miterlimit="10" d="M344.037,30.7l-5.385,1.238
		c0,0,3.445-4.156,3.959-5.076c0.682-1.223-6.621,2.724-6.621,2.724c0.434-2.661-19.127-10.732-19.127,8.542
		c0,0-1.342,0.223-1.98,0.186c-11.82-0.681-19.064-10.647-19.064-10.647c-5.198,9.903,4.705,15.103,4.705,15.103l-6.313-2.353
		c-1.547,5.817,7.552,10.769,7.552,10.769l-4.859,0.402c1.363,5.199,10.06,7.396,10.06,7.396s0.619,2.723-15.351,4.457
		c0,0,35.714,18.135,46.668-20.423c0.445-1.565,0.188-6.502,0.188-6.502C339.766,35.341,345.91,29.962,344.037,30.7z"/>
</g>
<g id="Calque_1_5_">
	<g id="Calque_2" display="none">
		
			<image display="inline" overflow="visible" enable-background="new    " width="631" height="151" xlink:href="402A66A2.jpg"  transform="matrix(0.5173 0 0 0.5173 307.0791 4.9453)">
		</image>
	</g>
	<g id="Calque_1_6_">
		<circle fill="none" stroke="#FFFFFF" stroke-width="2" stroke-miterlimit="10" cx="404.785" cy="45" r="43.5"/>
	</g>
</g>
<g id="Calque_4">
	<path fill="none" stroke="#FFFFFF" stroke-width="5" stroke-miterlimit="10" d="M406.494,34.785
		c-1.804-0.665-3.752-1.046-5.814-1.046c-9.503,0-16.814,7.704-16.814,17.207c0,9.504,7.312,17.207,16.814,17.207
		c9.504,0,16.814-7.703,16.814-17.207c0-2.401-0.471-4.688-1.32-6.764"/>
</g>
<g id="Calque_3_4_">
	<path fill="#FFFFFF" d="M393.035,68c0,0,9.297-3.443,12.25-8.711c4.875-8.695,5.625-22.352,4.938-26.539
		c-0.178-1.081,0.328,1.041,0,0c-2.629-8.341-7.52-15.667-7.52-15.667c1.254,0.1,6.49,5.542,7.52,15.667c0,0,3.363,8.044,2,15.459
		C410.889,55.459,405.203,67.042,393.035,68z"/>
	<path fill="none" stroke="#010101" stroke-width="5" stroke-miterlimit="10" d="M411.973,35.656"/>
	<path fill="#FFFFFF" d="M411.973,35.656c0,0-3.602-5.619,1.721-9.813c2.357-1.859,6.547-1.828,9.063-4.547
		c1.979-2.137,2.063-3.172,2.063-3.172c6.188,9.469,1.055,21.28-5.563,21.625c-3.594,0.188-6.063-2.656-6.063-2.656
		s9.25-4.5,11-10.531l0,0C419.816,34.266,411.973,35.656,411.973,35.656z"/>
</g>
<g id="Calque_1_7_">
	<g id="Calque_2_1_" display="none">
		
			<image display="inline" overflow="visible" enable-background="new    " width="631" height="151" xlink:href="402A66A2.jpg"  transform="matrix(0.5173 0 0 0.5173 307.0791 94.9453)">
		</image>
	</g>
	<g id="Calque_1_8_">
		<circle fill="none" stroke="#364A5E" stroke-width="2" stroke-miterlimit="10" cx="404.784" cy="135" r="43.5"/>
	</g>
</g>
<g id="Calque_4_1_">
	<path fill="none" stroke="#364A5E" stroke-width="5" stroke-miterlimit="10" d="M406.491,124.785
		c-1.803-0.665-3.752-1.047-5.813-1.047c-9.503,0-16.813,7.705-16.813,17.207c0,9.504,7.311,17.207,16.813,17.207
		c9.505,0,16.815-7.703,16.815-17.207c0-2.401-0.471-4.688-1.32-6.764"/>
</g>
<g id="Calque_3_5_">
	<path fill="#364A5E" d="M393.034,158c0,0,9.297-3.443,12.25-8.711c4.875-8.695,5.625-22.352,4.938-26.539
		c-0.178-1.081,0.328,1.041,0,0c-2.629-8.341-7.521-15.667-7.521-15.667c1.254,0.101,6.49,5.542,7.521,15.667
		c0,0,3.363,8.044,2,15.459C410.888,145.459,405.2,157.042,393.034,158z"/>
	<path fill="#364A5E" stroke="#010101" stroke-width="5" stroke-miterlimit="10" d="M411.972,125.656"/>
	<path fill="#364A5E" d="M411.972,125.656c0,0-3.604-5.619,1.719-9.813c2.359-1.858,6.547-1.827,9.064-4.547
		c1.977-2.137,2.063-3.172,2.063-3.172c6.188,9.469,1.053,21.28-5.563,21.625c-3.596,0.188-6.064-2.656-6.064-2.656
		s9.25-4.5,11-10.53l0,0C419.815,124.266,411.972,125.656,411.972,125.656z"/>
</g>
<g id="Calque_1_9_">
	<circle fill="none" stroke="#364A5E" stroke-width="2" stroke-miterlimit="10" cx="45" cy="135" r="43.5"/>
</g>
<g id="Calque_3_6_">
	<path fill="#37495E" stroke="#364A5E" stroke-width="2" stroke-miterlimit="10" d="M41.271,166.5v-27.713H33.88v-10.348h7.392
		v-11.455c0.347-3.444,2.03-9.051,9.606-9.976h11.455v9.792l-7.735-0.023c-1.895,0-2.518,1.41-2.611,3.164v8.685l10.348,0.062
		v10.039l-10.223-0.062V166.5H41.271z"/>
</g>
<g id="Calque_1_10_">
	<circle fill="none" stroke="#364A5E" stroke-width="2" stroke-miterlimit="10" cx="135" cy="135" r="43.5"/>
</g>
<g id="Calque_3_7_">
	<path fill="#364A5E" stroke="#364A5E" stroke-width="2" stroke-miterlimit="10" d="M131.917,139.083
		c-0.151-0.226-0.174-0.877,0-1.083c4.083-4.822,6.489-3.167,6.476-11.391c-0.006-3.437,0.045-5.307-3.809-7.026
		c0,0,8.213-2.125,5.588-2.25H126.75c0,0-9.833,0-11.916,9.496c0,0-0.077,2.825,0.083,3.75c1.614,9.315,11.583,7.75,11.583,7.75
		v3.25c0,0,1.312,0.868,1.5,1.333c0.102,0.252-0.083,1.083-0.083,1.083s-15.612-1.537-15.583,9.25c0,0-1.178,8.963,11.583,9.75
		c0.936,0.06,3.75,0,3.75,0s11.802,0,13-11.082C141.355,145.542,135,143.646,131.917,139.083z M122.594,132.146
		c-1.082-1.572-1.827-3.775-1.719-7.438c0.063-2.125,1.674-4.106,3.594-4.845c2.688-1.03,5.923,2.27,6.938,4.189
		c2.031,3.844,1.462,8.5-0.719,10.094C129.005,135.375,126.145,137.303,122.594,132.146z M131.008,159.118
		c-2.192,0.715-4.998,0.823-9.2-0.556c-2.439-0.799-4.183-3.345-4.378-5.82c-0.273-3.467,4.655-6.084,7.225-6.604
		c5.146-1.037,10.342,1.217,11.441,4.287C136.943,152.798,138.193,156.771,131.008,159.118z"/>
	<polygon fill="#364A5E" stroke="#364A5E" stroke-width="2" stroke-miterlimit="10" points="144.083,126.166 152.667,126.166 
		152.667,117.333 155.667,117.333 155.667,126.166 164.583,126.166 164.583,129.083 155.583,129.083 155.563,137.708 
		152.688,137.708 152.688,128.988 144.083,129.083 	"/>
</g>
<g id="Calque_1_11_">
	<circle fill="none" stroke="#364A5E" stroke-width="2" stroke-miterlimit="10" cx="225" cy="135" r="43.5"/>
</g>
<g id="Calque_3_8_">
	
		<rect x="204.603" y="125.292" fill="#364A5E" stroke="#364A5E" stroke-width="2" stroke-miterlimit="10" width="9.555" height="30.838"/>
	<path fill="#364A5E" stroke="#364A5E" stroke-width="2" stroke-miterlimit="10" d="M220.326,125.292h9.033v4.257
		c3.187-5.791,20.937-10.888,20.937,9.469v17.113h-9.644l0.046-17.027c0.016-9.67-11.162-7.644-10.816-0.025v17.055h-9.554v-30.84
		L220.326,125.292L220.326,125.292z"/>
	
		<ellipse fill="#364A5E" stroke="#364A5E" stroke-width="2" stroke-miterlimit="10" cx="209.38" cy="115.427" rx="5.428" ry="5.686"/>
</g>
<g id="Calque_1_12_">
	<circle fill="none" stroke="#364A5E" stroke-width="2" stroke-miterlimit="10" cx="315" cy="135" r="43.5"/>
</g>
<g id="Calque_3_9_">
	<path fill="#364A5E" stroke="#364A5E" stroke-width="2" stroke-miterlimit="10" d="M344.037,120.7l-5.385,1.236
		c0,0,3.445-4.154,3.959-5.076c0.682-1.223-6.621,2.725-6.621,2.725c0.434-2.66-19.127-10.732-19.127,8.543
		c0,0-1.342,0.223-1.98,0.186c-11.82-0.682-19.064-10.646-19.064-10.646c-5.198,9.902,4.705,15.102,4.705,15.102l-6.313-2.352
		c-1.547,5.816,7.552,10.768,7.552,10.768l-4.859,0.402c1.363,5.199,10.06,7.396,10.06,7.396s0.619,2.723-15.351,4.457
		c0,0,35.714,18.135,46.668-20.424c0.445-1.564,0.188-6.502,0.188-6.502C339.766,125.341,345.91,119.962,344.037,120.7z"/>
</g>
</svg>
