<svg version="1.1" class="calque" xmlns="http://www.w3.org/2000/svg" xmlns:xlink="http://www.w3.org/1999/xlink" x="0px" y="0px"
	 width="1663px" height="636px" viewBox="0 0 1663 636" enable-background="new 0 0 1663 636" xml:space="preserve">
	 <defs>
       <pattern id="s_island" patternUnits="userSpaceOnUse" width="1663" height="636">
         <image xlink:href="img/second_island_min.jpg" x="0" y="0" width="1663" height="636" />
       </pattern>
     </defs>
    <path fill-rule="evenodd" clip-rule="evenodd" fill="url(#s_island)" stroke="#7A6752" stroke-width="3" stroke-miterlimit="10" d="M1,336.958
        c0-0.667,0-1.333,0-2c1.639-3.999,3.324-7.981,4.91-12.001c7.076-17.933,12.834-36.384,23.707-52.7
        c8.019-12.032,15.434-24.534,22.221-37.303c8.596-16.175,16.273-32.838,24.376-49.276c0.73-1.481,1.458-3.06,2.561-4.244
        c6.124-6.572,12.404-12.999,18.552-19.549c4.555-4.853,9.317-9.561,13.423-14.776c18.45-23.433,36.372-47.274,53.219-71.89
        c3.07-4.485,5.344-4.066,9.607-1.803c6.157,3.268,10.773,10.475,19.344,8.323c0.747-0.188,1.803,0.735,2.679,1.208
        c2.199,1.187,4.49,2.248,6.538,3.657c3.558,2.448,5.727,1.721,7.918-2.056c6.856-11.815,14.012-23.458,21.112-35.13
        c3.461-5.69,8.063-6.064,12.343-1.128c0.764,0.881,1.599,1.708,2.292,2.642c9.895,13.326,22.345,23.023,38.423,27.959
        c7.307,2.243,14.403,5.198,21.522,8.014c3.197,1.265,6.259,1.905,9.692,0.997c3.457-0.915,6.449,0.059,9.045,2.749
        c4.396,4.554,9.091,8.817,13.511,13.349c2.051,2.102,4.253,2.894,7.155,2.535c8.589-1.064,17.196-1.911,25.724-3.503
        c6.847-1.279,13.674-3.325,20.507-3.801c8.931-0.622,17.889,0.337,25.891-5.022c1.549-1.038,3.8-1.392,5.738-1.425
        c14.301-0.243,28.542-2.199,42.895-1.224c6.303,0.429,12.659,0.115,18.991,0.087c1.808-0.008,4.095,0.189,4.174-2.396
        c0.125-4.1,2.167-7.639,3.135-11.476c1.599-6.336,3.881-12.624,8.177-18.723c4.104,7.41,7.287,14.46,8.88,22.097
        c1.9,9.114,3.157,10.266,12.09,9.619c0.831-0.06,1.665-0.083,2.498-0.095c3.497-0.052,5.211-1.603,6.016-5.25
        c1.585-7.177,4.307-14.022,7.814-22.126c3.76,7.757,7.444,13.958,9.761,20.634c1.508,4.347,3.397,4.459,6.913,3.347
        c10.953-3.466,21.942-6.819,32.926-10.188c2.222-0.682,4.43-1.508,6.82-1.379c14.459,0.778,28.918,1.559,43.378,2.341
        c15.418,0.834,30.711,3.815,46.295,1.924c7.575-0.919,15.293-1.002,22.939-0.905c11.775,0.149,23.474,1.476,35.337,0.774
        c16.107-0.952,32.192,0.71,48.101,3.501c9.006,1.58,18.327,2.682,26.325-2.059c10.849-6.43,21.549-11.429,34.647-9.851
        c4.652,0.561,9.635-2.138,12.528-5.344c2.693-2.983,3.097-8.077,4.377-12.282c2.172-7.138,4.814-14.041,9.181-20.672
        c4.535,5.983,6.416,12.605,8.658,18.951c1.173,3.324,2.293,3.131,4.839,1.907c9.007-4.334,18.129-8.428,27.117-12.798
        c2.874-1.397,5.198-1.283,7.87,0.488c7.36,4.875,14.922,9.443,22.273,14.329c2.758,1.833,5.376,2.395,8.421,1.066
        c4.937-2.154,9.9-1.933,15.116-0.755c7.785,1.759,15.689,3.002,23.561,4.364c4.994,0.865,8.64-1.983,8.04-6.989
        c-0.381-3.172,0.772-5.457,1.898-8c0.74-1.673,1.862-3.297,2.116-5.045c1.678-11.545,7.282-21.559,12.148-31.865
        c1.233-2.612,2.521-2.324,3.644,0.077c2.327,4.979,5.237,9.802,6.716,15.026c1.276,4.511,4.282,8.419,4.63,13.075
        c0.514,6.865,3.339,13.141,5.028,19.632c2.152,8.269,3.756,7.007-3.474,11.066c-3.113,1.749-2.385,2.742,0.098,4.315
        c7.598,4.814,15.316,9.481,22.574,14.775c7.322,5.343,15.531,8.149,24.101,10.426c3.063,0.813,5.024,0.102,6.749-2.542
        c1.953-2.995,2.092-6.684,3.532-9.587c4.921-9.918,8.146-20.657,14.346-29.944c2.271-3.401,3.769-7.349,7.049-10.497
        c0.522,0.893,0.913,1.399,1.141,1.972c5.259,13.213,5.771,27.44,8.701,41.151c0.219,1.024-0.517,2.224-0.68,3.361
        c-0.932,6.487,2.385,9.487,8.651,7.864c34.65-8.971,69.29-17.982,103.974-26.824c2.39-0.609,2.81-2.027,3.207-3.791
        c0.867-3.857,2.041-7.58,3.911-10.99c1.685,0.367,1.967,1.64,2.543,2.603c3.866,6.461,6.277,13.542,8.325,20.714
        c0.989,3.461,2.425,4.396,5.689,2.809c3.59-1.745,7.241-3.388,10.953-4.854c12.702-5.015,25.442-9.93,38.165-14.892
        c2.086-0.814,4.717-1.121,3.101-4.667c-0.384-0.842,0.566-2.585,1.318-3.607c5.759-7.825,6.07-17.743,10.257-26.304
        c3.633-7.427,7.555-14.751,11.077-22.251c0.467-0.995,1.057-2.31,2.507-2.03c1.127,0.218,1.188,1.496,1.561,2.371
        c4.524,10.597,6.196,22.033,9.663,32.941c0.452,1.424-0.243,2.551-0.539,3.831c-1.202,5.2,2.453,10.507,7.647,10.879
        c9.63,0.69,19.27,1.306,28.915,1.647c3.165,0.112,5.236,1.152,7.055,3.708c5.117,7.192,10.501,14.195,15.661,21.357
        c1.494,2.073,2.572,2.531,4.688,0.608c5.599-5.083,5.694-4.996,10.839,0.599c3.833,4.17,7.659,8.348,11.443,12.563
        c1.586,1.767,3.441,3.129,5.541,4.191c1.188,0.601,2.135,0.645,2.835-0.813c1.294-2.694,3.105-5.197,4.027-8.001
        c2.571-7.82,6.549-14.88,10.954-21.747c0.527-0.822,1.021-1.944,2.146-1.839c1.164,0.107,1.377,1.271,1.636,2.25
        c0.214,0.804,0.474,1.596,0.718,2.392c3.823,12.429,3.722,25.414,5.386,38.147c0.367,2.809-1.404,3.335-3.689,3.391
        c-3.22,0.079-2.837,1.4-1.096,3.268c2.756,2.957,5.725,5.281,9.814,6.472c5.544,1.614,11.713,2.055,16.296,5.884
        c3.545,2.96,7.345,4.246,11.76,4.763c9.59,1.125,18.823,2.561,26.319,10.078c9.347,9.372,19.46,18.037,33.104,20.871
        c2.117,0.44,3.693,1.838,3.315,4.269c-0.81,5.207,1.989,8.813,5.043,12.457c3.208,3.828,6.195,7.841,9.249,11.797
        c0.9,1.168,1.774,2.263,1.643,4.005c-0.474,6.267,3.481,11.655,9.343,13.92c6.741,2.605,13.547,0.44,20.307,0.76
        c3.47,0.164,6.264,0.811,7.737,4.208c2.48,5.718,7.012,9.087,12.616,11.339c4.324,1.737,8.549,3.721,12.889,5.413
        c8.714,3.397,8.734,3.345,8.957,12.8c0.175,7.466,0.562,8.482,7.835,9.6c5.096,0.783,4.568,2.896,3.036,6.336
        c-1.897,4.258-3.591,8.608-5.35,12.928c-0.754,1.854-1.796,3.8-1.258,5.776c1.729,6.357-1.337,11.201-4.52,16.163
        c-3.237,5.046-6.229,10.251-9.281,15.413c-3.214,5.432-2.946,6.944,2.577,9.76c2.892,1.475,2.888,2.948,1.548,5.471
        c-2.905,5.475-6.822,10.264-10.103,15.473c-4.732,7.518-8.619,15.594-9.305,24.484c-1.262,16.36-6.85,31.482-12.147,46.721
        c-4.056,11.668-10.072,21.676-22.835,25.68c-5.475,1.718-7.461,5.614-7.79,11.278c-0.252,4.326,1.95,9.978-1.935,12.753
        c-3.479,2.486-8.754,0.913-13.214,0.822c-9.386-0.192-17.915,0.77-26.623,5.879c-9.803,5.751-15.835,12.449-16.432,23.856
        c-0.137,2.625-0.938,5.181-3.311,6.997c-10.415,7.973-20.268,17.061-34.239,18.229c-11.665,0.976-18.908,6.622-20.966,18.456
        c-0.673,3.871-3.306,4.716-7.057,4.272c-49.921-5.903-100.016-10.37-149.744-17.855c-15.175-2.285-31.103-2.382-43.957-12.718
        c-4.021-3.234-6.918-2.376-9.978,1.459c-2.305,2.887-4.408,6.296-9.008,6.386c-4.985,0.098-9.963,1.004-14.942,0.981
        c-10.667-0.05-19.763,2.696-26.362,11.866c-6.662,9.254-16.27,13.105-27.294,15.647c-12.555,2.896-25.186,6.87-35.483,15.243
        c-6.984,5.679-14.271,10.945-21.256,16.606c-2.527,2.049-5.126,2.842-8.324,2.036c-4.991-1.258-9.307-0.165-13.479,3.138
        c-6.261,4.96-13.219,9.052-19.381,14.12c-5.271,4.332-10.864,5.72-17.516,5.399c-6.095-0.293-12.355-1.348-18.352,0.809
        c-22.171,7.975-45.35,12.079-68.102,17.82c-3.147,0.794-6.156,0.668-9.317-0.277c-18.984-5.684-38.212-10.672-56.741-17.702
        c-9.762-3.705-19.238-4.113-29.295-2.461c-19.08,3.134-19.205,3.045-31.172-11.871c-3.146-3.921-6.378-7.14-11.555-7.911
        c-1.649-0.245-3.217-0.986-4.047-2.632c-1.356-2.692-3.73-2.961-6.367-2.851c-17.966,0.749-35.928,1.766-53.902,2.078
        c-11.681,0.202-22.263,2.888-31.635,9.986c-1.45,1.099-3.254,1.726-4.711,2.815c-2.416,1.809-5.052,2.166-7.985,2.145
        c-12.83-0.094-25.661,0.039-38.491-0.057c-3.147-0.023-5.809,0.78-8.397,2.551c-7.286,4.982-14.87,9.553-21.969,14.783
        c-6.47,4.767-13.387,8.054-21.381,8.736c-11.5,0.981-21.122,5.296-27.942,14.947c-2.358,3.337-4.836,3.544-8.417,1.286
        c-10.704-6.752-21.861-12.803-32.417-19.77c-6.008-3.965-12.012-4.503-18.904-4.154c-15.074,0.763-30.109,2.359-45.312,0.07
        c-11.792-1.776-23.672-3.719-35.729-3.381c-8.266,0.232-15.919,1.552-23.016,6.573c-8.547,6.05-17.867,10.998-26.703,16.656
        c-3.354,2.147-6.108,2.363-9.55,0.117c-5.294-3.454-11.052-6.198-16.347-9.651c-4.958-3.232-9.766-3.966-15.548-2.212
        c-6.654,2.019-13.491,3.537-20.429,4.55c-9.646,1.407-17.849-2.845-26.344-6.112c-2.153-0.828-4.234-1.965-6.715-1.517
        c-8.34,1.509-16.749,2.59-24.952,4.891c-11.855,3.326-23.812,6.29-35.694,9.521c-3.273,0.891-5.276,0.95-6.599-3.155
        c-1.933-5.995-5.624-11.456-7.306-17.495c-3.706-13.294-13.324-21.02-24.225-27.822c-4.665-2.912-9.338-5.809-13.994-8.732
        c-5.454-3.426-11.556-6.017-14.722-12.275c-1.171-2.314-3.054-1.818-4.32,0.043c-2.404,3.537-5.227,3.008-8.667,1.656
        c-16.586-6.513-33.268-12.785-49.859-19.287c-3.782-1.48-7.648-2.28-11.625-2.695c-6.953-0.727-13.904-1.575-20.878-1.938
        c-4.337-0.227-7.002-2.121-9.14-5.762c-8.26-14.063-16.703-28.021-25.08-42.016c-17.797-29.729-35.567-59.476-53.439-89.159
        c-1.812-3.009-2.147-5.58-0.521-8.821c2.91-5.804,5.282-11.873,8.084-17.732c1.365-2.855,1.34-5.111-0.631-7.806
        C15.158,357.146,8.125,347.019,1,336.958z"/>
</svg>
