<svg id="xc_polygon" version="1.1" xmlns="http://www.w3.org/2000/svg" xmlns:xlink="http://www.w3.org/1999/xlink" x="0px" y="0px" width="1663px"
	 height="636px" viewBox="0 0 1663 636" enable-background="new 0 0 1663 636" xml:space="preserve">
    <g id="Xavier">
        <g id="X">
            <polygon fill="none" stroke="#e46163" stroke-width="4" points="351.826,48.072 405.416,48.072 460.536,108.289 505.449,48.072
                550.362,48.072 564.653,65.697 487.076,153.952 564.653,259.046 498.304,259.046 453.902,190.664 409.499,259.046
                351.847,259.046 351.847,235.906 428.393,146.327"/>
            <polyline fill="none" stroke="#e46163" stroke-width="4" stroke-linejoin="round" points="405.416,47.6 416.681,131.035
                428.382,146.09 460.536,107.816 351.826,47.6"/>
            <polyline fill="none" stroke="#e46163" stroke-width="4" stroke-linejoin="round" points="505.449,47.6 453.902,190.487
                487.076,153.746 564.653,65.46 428.382,146.09 409.499,258.87"/>
            <polyline fill="none" stroke="#e46163" stroke-width="4" stroke-linejoin="round" points="351.826,235.906 453.902,190.487
                428.382,146.09"/>
            <polygon fill="none" stroke="#e46163" stroke-width="4" stroke-linejoin="round" points="498.304,258.87 541.375,227.326
                453.902,190.487 487.076,153.746"/>
        </g>
        <g id="a">
            <path fill="none" stroke="#e46163" stroke-width="4" d="M593.517,110.716l15.395,25.976c0,0,61.94-39.414,66.195,22.768
                l-65.169,7.184l-26.684,41.046l9.75,38.994l38.999,18.984l50.288-11.288l15.907,6.671l29.763-4.617l-7.184-27.707l0.512-92.034
                C721.29,136.692,706.409,53.765,593.517,110.716z"/>
            <polyline fill="none" stroke="#e46163" stroke-width="4" stroke-linejoin="round" points="608.815,136.491 662.23,90.641
                721.016,135.29 675.107,159.058 720.847,159.058"/>
            <polyline fill="none" stroke="#e46163" stroke-width="4" stroke-linejoin="round" points="662.279,90.741 668.542,128.059
                721.041,135.54 720.948,198.202 658.43,166.643 623.537,198.308 632.354,231.049 683.061,231.049 720.948,198.308"/>
            <polyline fill="none" stroke="#e46163" stroke-width="4" stroke-linejoin="round" points="688.633,181.889 683.061,230.836
                720.778,228.726"/>
            <polyline fill="none" stroke="#e46163" stroke-width="4" stroke-linejoin="round" points="672.289,230.836 632.003,265.667
                593.004,246.683 623.537,198.202 609.938,166.643"/>
            <polyline fill="none" stroke="#e46163" stroke-width="4" stroke-linejoin="round" points="683.061,230.836 682.292,254.379
                583.254,207.689 658.43,166.643 688.633,181.889 697.735,100.897 649.691,121.914 593.517,110.716"/>

                <line fill="none" stroke="#e46163" stroke-width="4" stroke-linejoin="round" x1="668.542" y1="128.059" x2="698.199" y2="261.05"/>
        </g>
        <g id="v">
            <path fill="none" stroke="#e46163" stroke-width="4" d="M747.46,93.067c0,0,37.717,151.98,53.111,167.979h47.721
                c0,0,7.955,2,54.65-167.979h-37.717L825.202,208.51L784.92,93.067H747.46z"/>
            <polyline fill="none" stroke="#e46163" stroke-width="4" stroke-linejoin="round" points="800.572,261.05 825.202,208.459
                848.293,261.05"/>
            <polygon fill="none" stroke="#e46163" stroke-width="4" stroke-linejoin="round" points="784.92,93.016 761.766,147.745
                825.202,208.459 890.648,136.891 865.227,93.016 873.543,194.555 782.985,219.796"/>
        </g>
        <g id="i">
            <polygon fill="none" stroke="#e46163" stroke-width="4" points="929.848,261.045 929.848,96.066 963.496,96.066 976.848,117.643
                976.848,208.459 963.238,261.045"/>
            <polygon fill="none" stroke="#e46163" stroke-width="4" points="929.627,67.07 927.063,27.712 947.209,15.217 976.848,23.5
                976.848,49.924 971.447,67.07"/>
            <polygon fill="none" stroke="#e46163" stroke-width="4" stroke-linejoin="round" points="929.848,96.351 976.691,117.643
                929.682,137.652 963.238,261.045 929.627,261.045 976.848,117.643 976.848,208.459 929.848,261.05"/>
            <polyline fill="none" stroke="#e46163" stroke-width="4" stroke-linejoin="round" points="929.627,67.369 956.32,53.905
                976.58,23.5 927.063,27.862 971.447,67.369"/>
        </g>
        <g id="e">
            <polygon fill="none" stroke="#e46163" stroke-width="4" points="1116.924,261.05 1033.713,243.862 1012.848,182.677
                1012.848,135.73 1064.887,90.741 1133.049,100.897 1163.088,141.887 1153.092,177.034 1052.264,183.447 1088.057,227.315
                1153.871,216.156 1161.568,234.755"/>
            <polyline fill="none" stroke="#e46163" stroke-width="4" stroke-linejoin="round" points="1075.117,252.406 1088.061,227.315
                1161.568,234.755 1153.871,216.156 1144.639,217.72 1116.924,261.05 1088.061,227.315 1033.795,243.862 1064.969,90.741
                1131.615,150.445 1133.09,100.897 1163.107,141.887 1013.012,182.677 1090.84,114.801 1013.012,135.73 1052.27,183.447
                1126.889,178.701 1013.012,135.73"/>
            <polyline fill="none" stroke="#e46163" stroke-width="4" stroke-linejoin="round" points="1133.09,100.897 1090.84,114.801
                1163.107,141.887 1131.615,150.445 1131.164,178.428"/>

                <line fill="none" stroke="#e46163" stroke-width="4" stroke-linejoin="round" x1="1088.061" y1="227.315" x2="1013.012" y2="182.677"/>
        </g>
        <g id="r">
            <polygon fill="none" stroke="#e46163" stroke-width="4" points="1206.211,254.379 1196.975,100.897 1224.172,96.351
                1250.342,109.34 1269.842,91.067 1309.869,91.067 1302.684,132.943 1253.422,134.913 1245.725,150.778 1239.814,261.071"/>
            <polyline fill="none" stroke="#e46163" stroke-width="4" stroke-linejoin="round" points="1206.211,254.379 1245.725,150.737
                1196.975,100.897 1224.172,96.351 1239.814,261.05 1200.316,156.406 1250.342,109.177 1302.684,132.78 1269.842,90.741
                1253.422,134.832 1200.316,156.406"/>
        </g>
    </g>
    <g id="Chevalier">
        <g id="C">
            <polygon fill="none" stroke="#e46163" stroke-width="4" points="284.966,435.482 316.781,404.697 294.203,382.125
                262.901,374.428 192.087,386.74 139.234,445.746 135.128,521.168 146.417,557.469 183.363,600.182 250.585,617.627
                303.953,598.129 316.781,573.504 301.387,557.469 269.059,568.885 214.666,563.752 187.469,519.115 188.495,460.111
                234.032,407.582"/>
            <polyline fill="none" stroke="#e46163" stroke-width="4" stroke-linejoin="round" points="303.953,598.129 301.387,557.469
                250.585,617.627 139.234,445.746 294.203,382.125 284.966,435.482 262.901,374.428 233.138,408.291 192.087,386.74
                183.363,600.182 139.234,445.746"/>
            <polyline fill="none" stroke="#e46163" stroke-width="4" stroke-linejoin="round" points="262.901,374.428 135.128,521.168
                250.585,617.627"/>

                <line fill="none" stroke="#e46163" stroke-width="4" stroke-linejoin="round" x1="183.363" y1="600.182" x2="301.387" y2="557.469"/>
        </g>
        <g id="h">
            <polygon fill="none" stroke="#e46163" stroke-width="4" points="352.878,613.521 349.847,539.383 349.847,371.031
                369.378,371.031 393.625,393.83 399.783,478.537 429.801,449.697 480.217,445.861 503.309,496.262 495.997,614.002
                456.357,614.002 459.82,523.461 442.886,487.17 401.707,503.27 399.422,608.68"/>
            <polygon fill="none" stroke="#e46163" stroke-width="4" stroke-linejoin="round" points="349.75,371.219 399.783,478.584
                349.75,539.383 399.398,608.648 352.018,593.979 401.707,503.209 373.202,510.887 349.75,470.117 393.625,393.924"/>
            <polyline fill="none" stroke="#e46163" stroke-width="4" stroke-linejoin="round" points="393.673,393.924 349.847,424.324
                349.847,470.117 503.357,496.027 459.844,523.461 495.997,614.002 456.357,614.002 503.309,496.268 495.997,613.643
                480.217,445.934 442.332,487.297 429.801,449.736 401.707,503.217 399.807,478.588"/>
        </g>
        <g id="e_1_">
            <polygon fill="none" stroke="#e46163" stroke-width="4" points="641.221,613.521 557.86,596.334 536.847,535.148 536.847,488.203
                589.034,443.213 657.269,453.369 687.346,494.359 677.369,529.504 576.55,535.918 612.35,579.787 678.164,568.627
                685.863,587.229"/>
            <polyline fill="none" stroke="#e46163" stroke-width="4" stroke-linejoin="round" points="599.415,604.879 612.357,579.787
                685.865,587.229 678.167,568.627 668.935,570.191 641.221,613.521 612.357,579.787 558.091,596.334 589.265,443.213
                655.912,502.918 657.384,453.369 687.404,494.359 537.309,535.148 615.136,467.273 537.309,488.203 576.565,535.918
                651.185,531.17 537.309,488.203"/>
            <polyline fill="none" stroke="#e46163" stroke-width="4" stroke-linejoin="round" points="657.384,453.369 615.136,467.273
                687.404,494.359 655.912,502.918 655.459,530.9"/>

                <line fill="none" stroke="#e46163" stroke-width="4" stroke-linejoin="round" x1="612.357" y1="579.787" x2="537.309" y2="535.148"/>
        </g>
        <g id="v_1_">
            <path fill="none" stroke="#e46163" stroke-width="4" d="M706.324,446.023c0,0,37.716,152.98,53.109,167.979h47.724
                c0,0,7.954,2,54.652-167.979H824.09l-40.025,115.441l-40.283-115.441H706.324z"/>
            <polygon fill="none" stroke="#e46163" stroke-width="4" stroke-linejoin="round" points="743.782,446.447 720.629,501.176
                784.065,561.889 849.51,490.322 824.09,446.447 832.406,547.984 741.847,573.229"/>
            <polyline fill="none" stroke="#e46163" stroke-width="4" stroke-linejoin="round" points="759.433,614.48 784.065,561.889
                807.157,614.48"/>
        </g>
        <g id="a_1_">
            <path fill="none" stroke="#e46163" stroke-width="4" d="M883.4,465.832l15.395,25.977c0,0,61.939-39.416,66.193,22.768
                l-65.168,7.184l-26.684,41.045l9.75,38.994l38.998,18.984l50.289-11.291l15.908,6.674l29.762-4.619l-7.184-27.705l0.512-92.033
                C1011.172,491.809,996.291,408.881,883.4,465.832z"/>
            <polyline fill="none" stroke="#e46163" stroke-width="4" stroke-linejoin="round" points="898.758,492.027 952.143,445.967
                1010.912,490.932 964.988,515.014 1010.848,515.014"/>
            <polyline fill="none" stroke="#e46163" stroke-width="4" stroke-linejoin="round" points="952.162,445.857 958.424,483.176
                1010.922,490.658 1010.83,553.318 948.313,521.76 913.418,553.346 922.236,586.006 972.943,586.006 1010.83,553.346"/>
            <polyline fill="none" stroke="#e46163" stroke-width="4" stroke-linejoin="round" points="978.516,537.006 972.943,585.951
                1010.66,583.842"/>
            <polyline fill="none" stroke="#e46163" stroke-width="4" stroke-linejoin="round" points="962.172,585.951 921.885,620.783
                882.887,601.799 913.418,553.318 899.82,521.76"/>
            <polyline fill="none" stroke="#e46163" stroke-width="4" stroke-linejoin="round" points="972.943,585.951 972.174,609.492
                873.137,562.805 948.313,521.76 978.516,537.006 987.615,456.014 939.572,477.031 883.4,465.832"/>

                <line fill="none" stroke="#e46163" stroke-width="4" stroke-linejoin="round" x1="958.424" y1="483.176" x2="988.082" y2="616.166"/>
        </g>
        <g id="l">
            <polygon fill="none" stroke="#e46163" stroke-width="4" points="1064.912,612.814 1053.848,561.889 1053.848,373.031
                1087.91,373.031 1099.848,397.201 1099.848,588.186 1108.549,609.496"/>
            <polygon fill="none" stroke="#e46163" stroke-width="4" stroke-linejoin="round" points="1064.818,612.814 1099.457,588.186
                1053.658,561.889 1080.982,515.904"/>

                <line fill="none" stroke="#e46163" stroke-width="4" stroke-linejoin="round" x1="1080.982" y1="515.904" x2="1099.457" y2="588.186"/>
            <polyline fill="none" stroke="#e46163" stroke-width="4" stroke-linejoin="round" points="1053.658,372.758 1099.457,397.201
                1053.658,413.164 1080.982,515.904 1099.457,397.201"/>
        </g>
        <g id="i_1_">
            <polygon fill="none" stroke="#e46163" stroke-width="4" points="1143.848,613.002 1143.848,448.023 1177.504,448.023
                1190.848,469.408 1190.848,560.223 1177.25,613.002"/>
            <polygon fill="none" stroke="#e46163" stroke-width="4" points="1143.637,419.025 1141.074,379.572 1161.215,367.029
                1190.848,375.266 1190.848,401.688 1185.461,419.025"/>
            <polygon fill="none" stroke="#e46163" stroke-width="4" stroke-linejoin="round" points="1143.848,448.117 1190.695,469.408
                1143.689,489.512 1177.25,613.002 1143.637,613.002 1190.848,469.408 1190.848,560.223 1143.848,612.813"/>
            <polyline fill="none" stroke="#e46163" stroke-width="4" stroke-linejoin="round" points="1143.637,419.135 1170.332,405.668
                1190.59,375.266 1141.074,379.627 1185.461,419.135"/>
        </g>
        <g id="e_2_">
            <polygon fill="none" stroke="#e46163" stroke-width="4" points="1332.73,615.619 1249.615,598.432 1228.848,537.246
                1228.848,490.299 1280.787,445.311 1348.902,455.467 1378.916,496.455 1368.908,531.602 1268.074,538.016 1303.865,581.885
                1369.676,570.725 1377.373,589.324"/>
            <polyline fill="none" stroke="#e46163" stroke-width="4" stroke-linejoin="round" points="1290.924,606.977 1303.865,581.885
                1377.373,589.324 1369.676,570.725 1360.445,572.289 1332.73,615.619 1303.865,581.885 1249.6,598.432 1280.773,445.311
                1347.42,505.016 1348.895,455.467 1378.912,496.455 1228.818,537.246 1306.646,469.369 1228.818,490.299 1268.072,538.016
                1342.693,533.268 1228.818,490.299"/>
            <polyline fill="none" stroke="#e46163" stroke-width="4" stroke-linejoin="round" points="1348.895,455.467 1306.646,469.369
                1378.912,496.455 1347.42,505.016 1346.969,532.998"/>

                <line fill="none" stroke="#e46163" stroke-width="4" stroke-linejoin="round" x1="1303.865" y1="581.885" x2="1228.818" y2="537.246"/>
        </g>
        <g id="r_1_">
            <polygon fill="none" stroke="#e46163" stroke-width="4" points="1422.91,609.654 1413.674,456.174 1440.869,451.629
                1467.039,464.457 1486.541,446.023 1526.566,446.023 1519.379,488.061 1470.117,490.109 1462.42,506.016 1456.514,616.326"/>
            <polyline fill="none" stroke="#e46163" stroke-width="4" stroke-linejoin="round" points="1422.91,609.654 1462.42,506.016
                1413.674,456.174 1440.869,451.629 1456.514,616.326 1417.014,511.686 1467.039,464.455 1519.379,488.059 1486.541,446.02
                1470.117,490.109 1417.014,511.686"/>
        </g>
    </g>
</svg>
